<?xml version="1.0" encoding="UTF-8"?>
<svg id="Layer_1" data-name="Layer 1" xmlns="http://www.w3.org/2000/svg" xmlns:xlink="http://www.w3.org/1999/xlink" viewBox="0 0 181.14 148.23">
  <defs>
    <style>
      .cls-1, .cls-2 {
        stroke-width: 0px;
      }

      .cls-2 {
        fill: url(#Blue);
      }
    </style>
    <linearGradient id="Blue" x1="29.12" y1="74.11" x2="109.9" y2="74.11" gradientUnits="userSpaceOnUse">
      <stop offset="0" stop-color="#48c0ef"/>
      <stop offset=".5" stop-color="#009fe3"/>
      <stop offset="1" stop-color="#008ad2"/>
    </linearGradient>
  </defs>
  <path class="cls-2" d="M102.85,105.37l7.04,7.04c-8.69,7.1-19.69,11.17-31.33,11.17-1.25,0-2.5-.05-3.76-.14-24.15-1.82-43.72-21.39-45.54-45.54-1.04-13.92,3.6-27.2,13.07-37.41,9.34-10.07,22.56-15.85,36.26-15.85,11.59,0,22.59,4.03,31.3,11.17l-7.04,7.03c-6.85-5.32-15.33-8.31-24.26-8.31-10.95,0-21.53,4.62-29.01,12.68-7.58,8.17-11.29,18.8-10.45,29.94,1.44,19.31,17.1,34.96,36.41,36.41,10.07.76,19.73-2.32,27.31-8.2Z"/>
  <path class="cls-1" d="M126.86,95.06c-1.9,4.47-4.4,8.54-7.4,12.13l-6.9-7.01c2.13-2.69,3.92-5.68,5.31-8.95.96-2.25.74-4.72-.62-6.79-1.37-2.09-3.59-3.31-6.09-3.33h.58s-3.69,11.53-7.85,15.88c-5.7,5.96-13.69,9.35-21.94,9.28-7.68-.05-14.9-2.97-20.47-8.31-5.96-5.7-9.35-13.69-9.28-21.94.05-7.68,2.97-14.9,8.31-20.47,5.7-5.96,13.69-9.35,21.94-9.28,6.31.04,12.3,2.02,17.34,5.69l-7.28,7.16c-3.03-1.85-6.51-2.82-10.14-2.85-5.58-.05-10.77,2.15-14.63,6.19-3.55,3.72-5.49,8.53-5.53,13.65-.05,5.58,2.15,10.77,6.19,14.63,3.72,3.55,8.53,5.49,13.65,5.53,5.58.05,10.77-2.15,14.63-6.19,2.36-2.48,4.01-5.44,4.86-8.97h-19.64l.08-10,29.21.24c3.62.03,7.2,1.11,10.09,3.3,6.59,4.99,8.6,13.37,5.61,20.41Z"/>
</svg>