<?xml version="1.0" encoding="UTF-8"?>
<svg id="Layer_1" data-name="Layer 1" xmlns="http://www.w3.org/2000/svg" xmlns:xlink="http://www.w3.org/1999/xlink" viewBox="0 0 353.18 172.04">
  <defs>
    <style>
      .cls-1 {
        font-size: 36px;
      }

      .cls-1, .cls-2 {
        font-family: Verdana-Bold, Verdana;
        font-weight: 700;
      }

      .cls-3 {
        fill: url(#Blue);
      }

      .cls-3, .cls-4 {
        stroke-width: 0px;
      }

      .cls-4 {
        fill: #1f1f1f;
      }

      .cls-2 {
        font-size: 30px;
      }

      .cls-5 {
        letter-spacing: 0em;
      }

      .cls-6 {
        font-family: Verdana, Verdana;
        font-size: 12.93px;
      }
    </style>
    <linearGradient id="Blue" x1="28.03" y1="81.3" x2="136.88" y2="81.3" gradientUnits="userSpaceOnUse">
      <stop offset="0" stop-color="#48c0ef"/>
      <stop offset=".5" stop-color="#009fe3"/>
      <stop offset="1" stop-color="#008ad2"/>
    </linearGradient>
  </defs>
  <path class="cls-3" d="M127.39,123.42l9.49,9.49c-11.7,9.57-26.53,15.05-42.22,15.05-1.68,0-3.37-.07-5.07-.19-32.54-2.45-58.92-28.83-61.37-61.37-1.4-18.76,4.85-36.65,17.61-50.41,12.58-13.57,30.4-21.36,48.86-21.36,15.62,0,30.44,5.43,42.18,15.05l-9.49,9.48c-9.23-7.17-20.65-11.2-32.69-11.2-14.76,0-29.01,6.23-39.09,17.09-10.21,11.01-15.21,25.33-14.08,40.34,1.95,26.03,23.04,47.12,49.06,49.06,13.57,1.03,26.59-3.12,36.8-11.05Z"/>
  <path class="cls-4" d="M157.01,108.57c-2.47,5.81-5.73,11.1-9.62,15.77l-8.96-9.11c2.77-3.49,5.1-7.38,6.9-11.63,1.25-2.92.96-6.14-.81-8.83-1.78-2.72-4.67-4.3-7.92-4.33h.75s-4.8,14.99-10.2,20.64c-7.41,7.75-17.79,12.15-28.52,12.07-9.98-.07-19.37-3.86-26.62-10.8-7.75-7.41-12.15-17.79-12.07-28.52.07-9.98,3.86-19.37,10.8-26.62,7.41-7.75,17.79-12.15,28.52-12.07,8.2.05,16,2.63,22.54,7.4l-9.46,9.31c-3.95-2.4-8.46-3.67-13.18-3.71-7.25-.06-14,2.8-19.02,8.05-4.62,4.84-7.14,11.08-7.19,17.74-.06,7.25,2.8,14,8.05,19.02,4.84,4.62,11.08,7.14,17.74,7.19,7.25.06,14-2.8,19.02-8.05,3.07-3.23,5.22-7.07,6.32-11.66h-25.54l.1-13,37.51.31c6.59.05,12.98,2.75,17.26,7.76,5.56,6.5,6.86,15.4,3.61,23.06Z"/>
  <text class="cls-1" transform="translate(140.15 71.26)"><tspan x="0" y="0">Garage</tspan></text>
  <text class="cls-6" transform="translate(168.25 128.28) scale(1.08 1)"><tspan x="0" y="0">By </tspan><tspan class="cls-5" x="21.05" y="0">S</tspan><tspan x="29.76" y="0">wift Group</tspan></text>
  <text class="cls-2" transform="translate(165.46 103.3)"><tspan x="0" y="0">Nyumbani</tspan></text>
</svg>